<svg width="16" height="16" viewBox="0 0 16 16" fill="none" xmlns="http://www.w3.org/2000/svg">
    <rect width="16" height="16" rx="2" fill="#8AFFF1" />
    <path
        d="M8 1.58337L2.75 3.91671V7.41671C2.75 10.6542 4.99 13.6817 8 14.4167C11.01 13.6817 13.25 10.6542 13.25 7.41671V3.91671L8 1.58337ZM8 4.31337C8.29167 4.31337 8.55417 4.56421 8.55417 4.86754V6.89754L11.5 8.73504V9.47587L8.55417 8.55421V10.5784L9.28917 11.1325V11.6867L8 11.3134L6.71083 11.6867V11.1325L7.44583 10.5784V8.55421L4.5 9.47587V8.73504L7.44583 6.89754V4.86754C7.44583 4.56421 7.70833 4.31337 8 4.31337Z"
        fill="black" />
</svg>